<?xml version="1.0" encoding="UTF-8" standalone="no"?>
<svg
   xmlns:dc="http://purl.org/dc/elements/1.1/"
   xmlns:cc="http://creativecommons.org/ns#"
   xmlns:rdf="http://www.w3.org/1999/02/22-rdf-syntax-ns#"
   xmlns:svg="http://www.w3.org/2000/svg"
   xmlns="http://www.w3.org/2000/svg"
   xmlns:sodipodi="http://sodipodi.sourceforge.net/DTD/sodipodi-0.dtd"
   xmlns:inkscape="http://www.inkscape.org/namespaces/inkscape"
   width="139.85118mm"
   height="142.875mm"
   viewBox="0 0 139.85118 142.875"
   version="1.1"
   id="svg8"
   sodipodi:docname="NLogoFooter.svg"
   inkscape:version="0.92.4 (5da689c313, 2019-01-14)">
  <sodipodi:namedview
     pagecolor="#ffffff"
     bordercolor="#666666"
     borderopacity="1"
     objecttolerance="10"
     gridtolerance="10"
     guidetolerance="10"
     inkscape:pageopacity="0"
     inkscape:pageshadow="2"
     inkscape:window-width="1920"
     inkscape:window-height="1017"
     id="namedview840"
     showgrid="false"
     inkscape:snap-bbox="false"
     inkscape:snap-bbox-midpoints="true"
     showguides="true"
     inkscape:guide-bbox="true"
     inkscape:snap-bbox-edge-midpoints="true"
     inkscape:zoom="1.1104195"
     inkscape:cx="253.14118"
     inkscape:cy="284.58407"
     inkscape:window-x="-8"
     inkscape:window-y="-8"
     inkscape:window-maximized="1"
     inkscape:current-layer="svg8">
    <sodipodi:guide
       position="69.93321,142.96398"
       orientation="1,0"
       id="guide860"
       inkscape:locked="false" />
  </sodipodi:namedview>
  <defs
     id="defs2" />
  <metadata
     id="metadata5">
    <rdf:RDF>
      <cc:Work
         rdf:about="">
        <dc:format>image/svg+xml</dc:format>
        <dc:type
           rdf:resource="http://purl.org/dc/dcmitype/StillImage" />
        <dc:title></dc:title>
      </cc:Work>
    </rdf:RDF>
  </metadata>
  <g
     id="layer1"
     transform="matrix(0.4632078,0.4632078,-0.4632078,0.4632078,87.285385,-66.738631)">
    <path
       style="opacity:1;fill:#000000;fill-opacity:1;stroke:none;stroke-width:50.21860886;stroke-linecap:butt;stroke-linejoin:miter;stroke-miterlimit:4;stroke-dasharray:none;stroke-opacity:1"
       d="m 42.183464,112.58668 c -5.237391,12.14166 -6.638608,25.66289 -4.018953,38.78147 l 52.978582,52.97858 c 13.122547,2.62883 26.650457,1.23375 38.799197,-4.00122 z m 121.252046,54.33859 c 5.2326,-12.15568 6.62167,-25.69015 3.98383,-38.81659 L 114.53146,75.220808 C 101.40113,72.573952 87.860115,73.95701 75.697486,79.187242 Z"
       id="rect4542"
       inkscape:connector-curvature="0" />
    <path
       id="path4584"
       d="m 43.089529,111.68061 75.564371,12.2175 43.87696,43.9318 -75.541628,-12.2453 z"
       style="fill:#000000;fill-opacity:1;stroke:none;stroke-width:0.24015211px;stroke-linecap:butt;stroke-linejoin:miter;stroke-opacity:1"
       inkscape:connector-curvature="0" />
  </g>
  <text
     xml:space="preserve"
     style="font-style:normal;font-weight:normal;font-size:38.13212585px;line-height:1.25;font-family:sans-serif;letter-spacing:0px;word-spacing:0px;fill:#000000;fill-opacity:1;stroke:none;stroke-width:0.95330322"
     x="6.6963453"
     y="123.52116"
     id="text879"
     transform="scale(1.0553335,0.94756776)"><tspan
       sodipodi:role="line"
       id="tspan877"
       x="6.6963453"
       y="123.52116"
       style="font-style:normal;font-variant:normal;font-weight:normal;font-stretch:normal;font-size:38.13233185px;font-family:Corbel;-inkscape-font-specification:'Corbel, Normal';font-variant-ligatures:normal;font-variant-caps:normal;font-variant-numeric:normal;font-feature-settings:normal;text-align:start;writing-mode:lr-tb;text-anchor:start;stroke-width:0.95330322">NAZEH</tspan></text>
  <g
     aria-label="WEB DEVELOPER"
     transform="scale(0.94804771,1.0547992)"
     style="font-style:normal;font-variant:normal;font-weight:bold;font-stretch:normal;font-size:13.28177357px;line-height:1.25;font-family:sans-serif;-inkscape-font-specification:'sans-serif, Bold';font-variant-ligatures:normal;font-variant-caps:normal;font-variant-numeric:normal;font-feature-settings:normal;text-align:start;letter-spacing:0px;word-spacing:0px;writing-mode:lr-tb;text-anchor:start;fill:#000000;fill-opacity:1;stroke:none;stroke-width:0.33204177"
     id="text883">
    <path
       d="m 24.720234,117.1891 -2.600582,9.65653 h -2.756227 l -1.73156,-6.29069 -1.686162,6.29069 h -2.756228 l -2.600581,-9.65653 h 2.600581 l 1.48512,6.64738 1.776956,-6.64738 h 2.483848 l 1.692648,6.64738 1.556458,-6.64738 z"
       style="font-style:normal;font-variant:normal;font-weight:bold;font-stretch:normal;font-size:13.28177357px;font-family:sans-serif;-inkscape-font-specification:'sans-serif, Bold';font-variant-ligatures:normal;font-variant-caps:normal;font-variant-numeric:normal;font-feature-settings:normal;text-align:start;writing-mode:lr-tb;text-anchor:start;stroke-width:0.33204177"
       id="path827" />
    <path
       d="m 33.371545,126.84563 h -6.984604 v -9.65653 h 6.984604 v 1.86775 h -4.507242 v 1.66671 h 4.18298 v 1.86775 h -4.18298 v 2.38657 h 4.507242 z"
       style="font-style:normal;font-variant:normal;font-weight:bold;font-stretch:normal;font-size:13.28177357px;font-family:sans-serif;-inkscape-font-specification:'sans-serif, Bold';font-variant-ligatures:normal;font-variant-caps:normal;font-variant-numeric:normal;font-feature-settings:normal;text-align:start;writing-mode:lr-tb;text-anchor:start;stroke-width:0.33204177"
       id="path829" />
    <path
       d="m 43.728476,123.88836 q 0,0.7004 -0.285351,1.25165 -0.278865,0.55124 -0.771743,0.91442 -0.570701,0.42802 -1.258137,0.60961 -0.68095,0.18159 -1.731559,0.18159 h -4.215407 v -9.65653 h 3.748469 q 1.167344,0 1.705619,0.0778 0.54476,0.0778 1.07655,0.34371 0.551245,0.27887 0.81714,0.75229 0.27238,0.46694 0.27238,1.07007 0,0.7004 -0.369659,1.23868 -0.369658,0.53179 -1.044123,0.83011 v 0.0519 q 0.946845,0.18807 1.49809,0.77823 0.557731,0.59016 0.557731,1.55646 z m -3.190739,-3.96897 q 0,-0.23995 -0.123219,-0.47991 -0.116734,-0.23995 -0.421541,-0.35669 -0.27238,-0.10376 -0.68095,-0.11025 -0.402085,-0.013 -1.134917,-0.013 h -0.233469 v 2.04285 h 0.389114 q 0.590157,0 1.005213,-0.0195 0.415055,-0.0195 0.655009,-0.12971 0.337233,-0.14916 0.440997,-0.38263 0.103763,-0.23995 0.103763,-0.55124 z m 0.609613,3.93006 q 0,-0.46046 -0.181587,-0.7069 -0.175101,-0.25292 -0.603127,-0.37614 -0.291836,-0.0843 -0.80417,-0.0908 -0.512334,-0.006 -1.070065,-0.006 h -0.54476 v 2.40603 h 0.181587 q 1.050609,0 1.504576,-0.006 0.453967,-0.006 0.836596,-0.16862 0.389114,-0.16213 0.53179,-0.42802 0.14916,-0.27238 0.14916,-0.62258 z"
       style="font-style:normal;font-variant:normal;font-weight:bold;font-stretch:normal;font-size:13.28177357px;font-family:sans-serif;-inkscape-font-specification:'sans-serif, Bold';font-variant-ligatures:normal;font-variant-caps:normal;font-variant-numeric:normal;font-feature-settings:normal;text-align:start;writing-mode:lr-tb;text-anchor:start;stroke-width:0.33204177"
       id="path831" />
    <path
       d="m 59.247656,122.02709 q 0,1.34893 -0.616098,2.419 -0.616098,1.06358 -1.556458,1.63428 -0.706891,0.42802 -1.549972,0.59664 -0.843082,0.16862 -1.997455,0.16862 h -3.404751 v -9.65653 h 3.50203 q 1.180314,0 2.036366,0.20105 0.856052,0.19455 1.439723,0.55773 0.998727,0.60961 1.569429,1.64725 0.577186,1.03115 0.577186,2.43196 z m -2.574641,-0.0195 q 0,-0.95333 -0.350203,-1.6278 -0.343717,-0.68095 -1.096005,-1.06358 -0.38263,-0.18807 -0.784715,-0.25292 -0.395599,-0.0713 -1.199769,-0.0713 h -0.629069 v 6.04424 h 0.629069 q 0.888478,0 1.303533,-0.0778 0.415056,-0.0843 0.810655,-0.29832 0.680951,-0.38911 0.998727,-1.03764 0.317777,-0.65501 0.317777,-1.61482 z"
       style="font-style:normal;font-variant:normal;font-weight:bold;font-stretch:normal;font-size:13.28177357px;font-family:sans-serif;-inkscape-font-specification:'sans-serif, Bold';font-variant-ligatures:normal;font-variant-caps:normal;font-variant-numeric:normal;font-feature-settings:normal;text-align:start;writing-mode:lr-tb;text-anchor:start;stroke-width:0.33204177"
       id="path833" />
    <path
       d="m 68.132436,126.84563 h -6.984604 v -9.65653 h 6.984604 v 1.86775 h -4.507242 v 1.66671 h 4.18298 v 1.86775 h -4.18298 v 2.38657 h 4.507242 z"
       style="font-style:normal;font-variant:normal;font-weight:bold;font-stretch:normal;font-size:13.28177357px;font-family:sans-serif;-inkscape-font-specification:'sans-serif, Bold';font-variant-ligatures:normal;font-variant-caps:normal;font-variant-numeric:normal;font-feature-settings:normal;text-align:start;writing-mode:lr-tb;text-anchor:start;stroke-width:0.33204177"
       id="path835" />
    <path
       d="m 78.982245,117.1891 -3.521486,9.65653 H 72.672106 L 69.15062,117.1891 h 2.613552 l 2.334687,6.78357 2.334687,-6.78357 z"
       style="font-style:normal;font-variant:normal;font-weight:bold;font-stretch:normal;font-size:13.28177357px;font-family:sans-serif;-inkscape-font-specification:'sans-serif, Bold';font-variant-ligatures:normal;font-variant-caps:normal;font-variant-numeric:normal;font-feature-settings:normal;text-align:start;writing-mode:lr-tb;text-anchor:start;stroke-width:0.33204177"
       id="path837" />
    <path
       d="m 87.354688,126.84563 h -6.984604 v -9.65653 h 6.984604 v 1.86775 h -4.507242 v 1.66671 h 4.18298 v 1.86775 h -4.18298 v 2.38657 h 4.507242 z"
       style="font-style:normal;font-variant:normal;font-weight:bold;font-stretch:normal;font-size:13.28177357px;font-family:sans-serif;-inkscape-font-specification:'sans-serif, Bold';font-variant-ligatures:normal;font-variant-caps:normal;font-variant-numeric:normal;font-feature-settings:normal;text-align:start;writing-mode:lr-tb;text-anchor:start;stroke-width:0.33204177"
       id="path839" />
    <path
       d="m 96.414571,126.84563 h -6.965149 v -9.65653 h 2.490332 v 7.78878 h 4.474817 z"
       style="font-style:normal;font-variant:normal;font-weight:bold;font-stretch:normal;font-size:13.28177357px;font-family:sans-serif;-inkscape-font-specification:'sans-serif, Bold';font-variant-ligatures:normal;font-variant-caps:normal;font-variant-numeric:normal;font-feature-settings:normal;text-align:start;writing-mode:lr-tb;text-anchor:start;stroke-width:0.33204177"
       id="path841" />
    <path
       d="m 107.29681,122.02061 q 0,2.30874 -1.32299,3.67064 -1.32299,1.35542 -3.65768,1.35542 -2.328199,0 -3.651188,-1.35542 -1.32299,-1.3619 -1.32299,-3.67064 0,-2.3282 1.32299,-3.67713 1.322989,-1.35542 3.651188,-1.35542 2.32172,0 3.65119,1.35542 1.32948,1.34893 1.32948,3.67713 z m -3.30099,2.44493 q 0.36317,-0.44099 0.53827,-1.03764 0.17511,-0.60312 0.17511,-1.41378 0,-0.86902 -0.20105,-1.47863 -0.20104,-0.60962 -0.5253,-0.98576 -0.33075,-0.38911 -0.76526,-0.56422 -0.42803,-0.1751 -0.89496,-0.1751 -0.47343,0 -0.89497,0.16862 -0.41505,0.16862 -0.76525,0.55773 -0.32427,0.36317 -0.53179,1.00521 -0.201046,0.63556 -0.201046,1.47864 0,0.86253 0.194556,1.47215 0.20104,0.60312 0.52531,0.98575 0.32426,0.38263 0.75877,0.56422 0.43451,0.18159 0.91442,0.18159 0.47991,0 0.91442,-0.18159 0.43451,-0.18807 0.75877,-0.57719 z"
       style="font-style:normal;font-variant:normal;font-weight:bold;font-stretch:normal;font-size:13.28177357px;font-family:sans-serif;-inkscape-font-specification:'sans-serif, Bold';font-variant-ligatures:normal;font-variant-caps:normal;font-variant-numeric:normal;font-feature-settings:normal;text-align:start;writing-mode:lr-tb;text-anchor:start;stroke-width:0.33204177"
       id="path843" />
    <path
       d="m 117.16086,120.23717 q 0,0.64852 -0.22699,1.2711 -0.22698,0.6161 -0.64852,1.03764 -0.57719,0.5707 -1.29056,0.86254 -0.7069,0.29183 -1.76399,0.29183 h -1.54997 v 3.14535 h -2.49033 v -9.65653 h 4.09867 q 0.9209,0 1.54997,0.16213 0.63555,0.15565 1.12195,0.47343 0.58367,0.38263 0.88848,0.97927 0.31129,0.59664 0.31129,1.43324 z m -2.57464,0.0584 q 0,-0.40857 -0.2205,-0.7004 -0.2205,-0.29832 -0.51234,-0.41506 -0.38911,-0.15564 -0.75877,-0.16861 -0.36966,-0.0195 -0.98576,-0.0195 h -0.42802 v 2.89242 h 0.71337 q 0.63556,0 1.04413,-0.0778 0.41505,-0.0778 0.69392,-0.31129 0.23995,-0.20752 0.34372,-0.49288 0.11025,-0.29183 0.11025,-0.70689 z"
       style="font-style:normal;font-variant:normal;font-weight:bold;font-stretch:normal;font-size:13.28177357px;font-family:sans-serif;-inkscape-font-specification:'sans-serif, Bold';font-variant-ligatures:normal;font-variant-caps:normal;font-variant-numeric:normal;font-feature-settings:normal;text-align:start;writing-mode:lr-tb;text-anchor:start;stroke-width:0.33204177"
       id="path845" />
    <path
       d="m 125.90296,126.84563 h -6.98461 v -9.65653 h 6.98461 v 1.86775 h -4.50724 v 1.66671 h 4.18298 v 1.86775 h -4.18298 v 2.38657 h 4.50724 z"
       style="font-style:normal;font-variant:normal;font-weight:bold;font-stretch:normal;font-size:13.28177357px;font-family:sans-serif;-inkscape-font-specification:'sans-serif, Bold';font-variant-ligatures:normal;font-variant-caps:normal;font-variant-numeric:normal;font-feature-settings:normal;text-align:start;writing-mode:lr-tb;text-anchor:start;stroke-width:0.33204177"
       id="path847" />
    <path
       d="m 133.41287,120.14637 q 0,-0.36317 -0.14916,-0.62258 -0.14916,-0.25941 -0.51234,-0.40857 -0.25292,-0.10376 -0.59015,-0.12322 -0.33723,-0.0259 -0.78472,-0.0259 h -0.90144 v 2.60058 h 0.76525 q 0.59665,0 0.99873,-0.0584 0.40209,-0.0584 0.67447,-0.26589 0.25941,-0.20104 0.37614,-0.441 0.12322,-0.24644 0.12322,-0.65501 z m 3.88466,6.69926 h -3.04158 l -2.63301,-3.54094 h -1.14788 v 3.54094 h -2.47737 v -9.65653 h 4.1765 q 0.85605,0 1.47215,0.0973 0.6161,0.0973 1.15437,0.42154 0.54476,0.32426 0.86254,0.84308 0.32426,0.51234 0.32426,1.29057 0,1.07006 -0.49936,1.74453 -0.49288,0.67446 -1.41379,1.12194 z"
       style="font-style:normal;font-variant:normal;font-weight:bold;font-stretch:normal;font-size:13.28177357px;font-family:sans-serif;-inkscape-font-specification:'sans-serif, Bold';font-variant-ligatures:normal;font-variant-caps:normal;font-variant-numeric:normal;font-feature-settings:normal;text-align:start;writing-mode:lr-tb;text-anchor:start;stroke-width:0.33204177"
       id="path849" />
  </g>
</svg>
